<svg width="371" height="280" viewBox="0 0 371 280" fill="none" xmlns="http://www.w3.org/2000/svg">
<path d="M105 0.854126V159.854H124.495V20.3489H264V0.854126H105Z" fill="white"/>
<path d="M244.573 140.49H184.531V159.854H263.938V40.7031H244.573V140.49Z" fill="white"/>
<path d="M214.615 120.104H224.25V40.7031H144.844V159.854H164.214V120.104H214.615ZM164.245 60.099H204.786V100.646H164.245V60.099Z" fill="white"/>
<path d="M342.253 223.256C343.149 224.877 344.152 226.285 345.261 227.48C346.413 228.675 347.65 229.592 348.973 230.232C350.338 230.872 351.768 231.192 353.261 231.192C354.84 231.192 356.141 230.808 357.165 230.04C358.189 229.229 358.701 228.141 358.701 226.776C358.701 225.624 358.402 224.707 357.805 224.024C357.208 223.299 356.248 222.616 354.925 221.976C353.602 221.336 351.853 220.611 349.677 219.8C348.61 219.416 347.373 218.883 345.965 218.2C344.6 217.517 343.298 216.643 342.061 215.576C340.824 214.467 339.8 213.144 338.989 211.608C338.178 210.029 337.773 208.131 337.773 205.912C337.773 203.267 338.456 200.984 339.821 199.064C341.229 197.144 343.106 195.693 345.453 194.712C347.842 193.688 350.488 193.176 353.389 193.176C356.376 193.176 358.957 193.667 361.133 194.648C363.352 195.629 365.186 196.867 366.637 198.36C368.088 199.853 369.197 201.368 369.965 202.904L361.709 207.512C361.069 206.445 360.322 205.528 359.469 204.76C358.658 203.949 357.741 203.331 356.717 202.904C355.736 202.435 354.669 202.2 353.517 202.2C351.981 202.2 350.808 202.541 349.997 203.224C349.186 203.864 348.781 204.675 348.781 205.656C348.781 206.68 349.165 207.576 349.933 208.344C350.744 209.112 351.874 209.816 353.325 210.456C354.818 211.096 356.61 211.779 358.701 212.504C360.28 213.101 361.752 213.805 363.117 214.616C364.482 215.384 365.677 216.323 366.701 217.432C367.768 218.541 368.6 219.821 369.197 221.272C369.794 222.723 370.093 224.387 370.093 226.264C370.093 228.525 369.624 230.552 368.685 232.344C367.789 234.093 366.552 235.565 364.973 236.76C363.437 237.955 361.666 238.851 359.661 239.448C357.698 240.088 355.672 240.408 353.581 240.408C350.68 240.408 347.97 239.896 345.453 238.872C342.978 237.805 340.824 236.376 338.989 234.584C337.154 232.792 335.725 230.829 334.701 228.696L342.253 223.256Z" fill="white"/>
<path d="M307.225 194.2H318.233V239H307.225V194.2Z" fill="white"/>
<path d="M263.812 194.2H274.629V229.72H292.613V239H263.812V194.2Z" fill="white"/>
<path d="M222.818 239V230.104H245.41V239H222.818ZM222.818 203.096V194.2H245.41V203.096H222.818ZM222.818 219.8V211.096H244.13V219.8H222.818ZM215.65 194.2H226.018V239H215.65V194.2Z" fill="white"/>
<path d="M170.978 223.256C171.874 224.877 172.877 226.285 173.986 227.48C175.138 228.675 176.375 229.592 177.698 230.232C179.063 230.872 180.493 231.192 181.986 231.192C183.565 231.192 184.866 230.808 185.89 230.04C186.914 229.229 187.426 228.141 187.426 226.776C187.426 225.624 187.127 224.707 186.53 224.024C185.933 223.299 184.973 222.616 183.65 221.976C182.327 221.336 180.578 220.611 178.402 219.8C177.335 219.416 176.098 218.883 174.69 218.2C173.325 217.517 172.023 216.643 170.786 215.576C169.549 214.467 168.525 213.144 167.714 211.608C166.903 210.029 166.498 208.131 166.498 205.912C166.498 203.267 167.181 200.984 168.546 199.064C169.954 197.144 171.831 195.693 174.178 194.712C176.567 193.688 179.213 193.176 182.114 193.176C185.101 193.176 187.682 193.667 189.858 194.648C192.077 195.629 193.911 196.867 195.362 198.36C196.813 199.853 197.922 201.368 198.69 202.904L190.434 207.512C189.794 206.445 189.047 205.528 188.194 204.76C187.383 203.949 186.466 203.331 185.442 202.904C184.461 202.435 183.394 202.2 182.242 202.2C180.706 202.2 179.533 202.541 178.722 203.224C177.911 203.864 177.506 204.675 177.506 205.656C177.506 206.68 177.89 207.576 178.658 208.344C179.469 209.112 180.599 209.816 182.05 210.456C183.543 211.096 185.335 211.779 187.426 212.504C189.005 213.101 190.477 213.805 191.842 214.616C193.207 215.384 194.402 216.323 195.426 217.432C196.493 218.541 197.325 219.821 197.922 221.272C198.519 222.723 198.818 224.387 198.818 226.264C198.818 228.525 198.349 230.552 197.41 232.344C196.514 234.093 195.277 235.565 193.698 236.76C192.162 237.955 190.391 238.851 188.386 239.448C186.423 240.088 184.397 240.408 182.306 240.408C179.405 240.408 176.695 239.896 174.178 238.872C171.703 237.805 169.549 236.376 167.714 234.584C165.879 232.792 164.45 230.829 163.426 228.696L170.978 223.256Z" fill="white"/>
<path d="M116.427 230.36L117.195 222.104H139.403L140.107 230.36H116.427ZM128.139 210.648L121.867 225.112L122.379 227.48L116.811 239H104.587L128.139 191.384L151.755 239H139.467L134.091 227.928L134.475 225.176L128.139 210.648Z" fill="white"/>
<path d="M52.483 220.248V210.52H86.403V220.248H52.483ZM79.555 194.2H90.371V239H79.555V194.2ZM49.475 194.2H60.291V239H49.475V194.2Z" fill="white"/>
<path d="M0 194.2H10.816V239H0V194.2ZM6.784 203.096V194.2H15.552C19.3493 194.2 22.528 194.797 25.088 195.992C27.6907 197.144 29.6533 198.808 30.976 200.984C32.2987 203.16 32.96 205.784 32.96 208.856C32.96 211.843 32.2987 214.445 30.976 216.664C29.6533 218.84 27.6907 220.525 25.088 221.72C22.528 222.872 19.3493 223.448 15.552 223.448H6.784V214.552H15.552C17.728 214.552 19.4347 214.061 20.672 213.08C21.9093 212.099 22.528 210.691 22.528 208.856C22.528 206.979 21.9093 205.549 20.672 204.568C19.4347 203.587 17.728 203.096 15.552 203.096H6.784Z" fill="white"/>
<path d="M275.04 279C274.368 279 274.032 278.664 274.032 277.992V263.736C274.032 263.064 274.368 262.728 275.04 262.728C275.712 262.728 276.048 263.064 276.048 263.736V269.436L282.168 263.112C282.632 262.616 283.104 262.608 283.584 263.088C284.08 263.552 284.088 264.024 283.608 264.504L278.508 269.772L284.52 277.248C284.928 277.784 284.88 278.256 284.376 278.664C283.856 279.088 283.384 279.04 282.96 278.52L277.092 271.248L276.048 272.328V277.992C276.048 278.664 275.712 279 275.04 279Z" fill="white"/>
<path d="M262.536 279.048C262.272 279.216 262.02 279.268 261.78 279.204C261.54 279.14 261.336 278.976 261.168 278.712L257.448 272.52H254.088V277.992C254.088 278.664 253.752 279 253.08 279C252.408 279 252.072 278.664 252.072 277.992V263.736C252.072 263.064 252.408 262.728 253.08 262.728H258.696C260.16 262.728 261.28 263.12 262.056 263.904C262.84 264.68 263.232 265.8 263.232 267.264V267.984C263.232 269.256 262.936 270.272 262.344 271.032C261.752 271.784 260.896 272.252 259.776 272.436L262.92 277.68C263.224 278.24 263.096 278.696 262.536 279.048ZM254.088 270.504H258.696C259.608 270.504 260.256 270.312 260.64 269.928C261.024 269.544 261.216 268.896 261.216 267.984V267.264C261.216 266.36 261.024 265.716 260.64 265.332C260.256 264.94 259.608 264.744 258.696 264.744H254.088V270.504Z" fill="white"/>
<path d="M232.451 279C230.619 279 229.263 278.564 228.383 277.692C227.511 276.812 227.075 275.456 227.075 273.624V268.08C227.075 266.232 227.515 264.876 228.395 264.012C229.275 263.14 230.627 262.712 232.451 262.728H235.331C237.171 262.728 238.527 263.164 239.399 264.036C240.271 264.908 240.707 266.264 240.707 268.104V273.624C240.707 275.456 240.271 276.812 239.399 277.692C238.527 278.564 237.171 279 235.331 279H232.451ZM232.451 276.984H235.331C236.187 276.984 236.859 276.884 237.347 276.684C237.835 276.476 238.179 276.128 238.379 275.64C238.587 275.152 238.691 274.48 238.691 273.624V268.104C238.691 267.256 238.587 266.588 238.379 266.1C238.179 265.612 237.835 265.264 237.347 265.056C236.859 264.848 236.187 264.744 235.331 264.744H232.451C231.603 264.736 230.935 264.832 230.447 265.032C229.959 265.232 229.611 265.576 229.403 266.064C229.195 266.552 229.091 267.224 229.091 268.08V273.624C229.091 274.48 229.191 275.152 229.391 275.64C229.599 276.128 229.947 276.476 230.435 276.684C230.923 276.884 231.595 276.984 232.451 276.984Z" fill="white"/>
<path d="M203.159 279C202.719 279 202.407 278.712 202.223 278.136L197.783 264.072C197.687 263.768 197.731 263.464 197.915 263.16C198.107 262.856 198.383 262.704 198.743 262.704C198.935 262.704 199.119 262.768 199.295 262.896C199.471 263.016 199.599 263.208 199.679 263.472L203.591 275.928H203.063L206.783 263.592C206.871 263.304 207.019 263.088 207.227 262.944C207.443 262.8 207.663 262.728 207.887 262.728C208.127 262.728 208.359 262.8 208.583 262.944C208.807 263.088 208.959 263.304 209.039 263.592L212.759 275.928H212.231L216.143 263.472C216.231 263.208 216.355 263.02 216.515 262.908C216.683 262.788 216.863 262.728 217.055 262.728C217.407 262.728 217.687 262.864 217.895 263.136C218.103 263.408 218.151 263.72 218.039 264.072L213.599 278.136C213.407 278.712 213.055 279 212.543 279H212.495C211.959 279 211.607 278.712 211.439 278.136L207.575 265.632H208.103L204.215 278.136C204.135 278.424 204.015 278.64 203.855 278.784C203.703 278.928 203.471 279 203.159 279Z" fill="white"/>
<path d="M179.254 279C178.582 279 178.246 278.664 178.246 277.992V263.736C178.246 263.064 178.582 262.728 179.254 262.728H187.87C188.542 262.728 188.878 263.064 188.878 263.736C188.878 264.408 188.542 264.744 187.87 264.744H180.262V269.784H185.038C185.71 269.784 186.046 270.12 186.046 270.792C186.046 271.464 185.71 271.8 185.038 271.8H180.262V276.984H187.87C188.542 276.984 188.878 277.32 188.878 277.992C188.878 278.664 188.542 279 187.87 279H179.254Z" fill="white"/>
<path d="M152.208 279C151.536 279 151.2 278.664 151.2 277.992V263.736C151.2 263.064 151.536 262.728 152.208 262.728C152.648 262.728 153.016 262.944 153.312 263.376L158.976 271.896L158.544 271.968L164.256 263.376C164.528 262.944 164.936 262.728 165.48 262.728C166.024 262.728 166.296 263.064 166.296 263.736V277.992C166.296 278.664 165.96 279 165.288 279C164.616 279 164.28 278.664 164.28 277.992V265.752L164.904 265.968L159.864 273.384C159.568 273.816 159.16 274.032 158.64 274.032C158.28 274.032 157.952 273.816 157.656 273.384L152.616 265.968L153.216 266.136V277.992C153.216 278.664 152.88 279 152.208 279Z" fill="white"/>
<path d="M127.488 278.904C126.848 278.656 126.656 278.216 126.912 277.584L132.624 263.52C132.864 262.992 133.24 262.728 133.752 262.728H133.8C134.32 262.752 134.672 263.016 134.856 263.52L140.664 277.584C140.92 278.216 140.736 278.656 140.112 278.904C139.48 279.152 139.04 278.968 138.792 278.352L137.496 275.208H130.02L128.784 278.352C128.536 278.976 128.104 279.16 127.488 278.904ZM130.812 273.192H136.668L133.68 265.92L130.812 273.192Z" fill="white"/>
<path d="M116.76 279.048C116.496 279.216 116.244 279.268 116.004 279.204C115.764 279.14 115.56 278.976 115.392 278.712L111.672 272.52H108.312V277.992C108.312 278.664 107.976 279 107.304 279C106.632 279 106.296 278.664 106.296 277.992V263.736C106.296 263.064 106.632 262.728 107.304 262.728H112.92C114.384 262.728 115.504 263.12 116.28 263.904C117.064 264.68 117.456 265.8 117.456 267.264V267.984C117.456 269.256 117.16 270.272 116.568 271.032C115.976 271.784 115.12 272.252 114 272.436L117.144 277.68C117.448 278.24 117.32 278.696 116.76 279.048ZM108.312 270.504H112.92C113.832 270.504 114.48 270.312 114.864 269.928C115.248 269.544 115.44 268.896 115.44 267.984V267.264C115.44 266.36 115.248 265.716 114.864 265.332C114.48 264.94 113.832 264.744 112.92 264.744H108.312V270.504Z" fill="white"/>
<path d="M87.008 279C86.336 279 86 278.664 86 277.992V263.736C86 263.064 86.336 262.728 87.008 262.728H95.84C96.152 262.728 96.396 262.82 96.572 263.004C96.756 263.18 96.848 263.424 96.848 263.736C96.848 264.408 96.512 264.744 95.84 264.744H88.016V269.784H92.84C93.512 269.784 93.848 270.12 93.848 270.792C93.848 271.464 93.512 271.8 92.84 271.8H88.016V277.992C88.016 278.664 87.68 279 87.008 279Z" fill="white"/>
</svg>
