<svg width="332" height="65" viewBox="0 0 332 65" fill="none" xmlns="http://www.w3.org/2000/svg">
<path d="M313.194 37.5297C313.799 38.6249 314.476 39.576 315.226 40.383C316.004 41.19 316.84 41.8097 317.733 42.242C318.656 42.6743 319.621 42.8905 320.63 42.8905C321.696 42.8905 322.575 42.6311 323.267 42.1123C323.959 41.5647 324.305 40.8297 324.305 39.9074C324.305 39.1293 324.103 38.5096 323.699 38.0485C323.296 37.5585 322.647 37.0973 321.754 36.665C320.86 36.2327 319.679 35.7427 318.209 35.1951C317.488 34.9357 316.653 34.5755 315.701 34.1143C314.779 33.6532 313.9 33.0623 313.064 32.3418C312.228 31.5924 311.537 30.699 310.989 29.6614C310.441 28.595 310.168 27.3124 310.168 25.8137C310.168 24.0268 310.629 22.4848 311.551 21.1878C312.502 19.8909 313.77 18.9109 315.356 18.248C316.97 17.5563 318.756 17.2104 320.716 17.2104C322.734 17.2104 324.478 17.5419 325.947 18.2048C327.446 18.8677 328.686 19.7035 329.665 20.7123C330.645 21.721 331.395 22.7442 331.914 23.7818L326.337 26.8945C325.904 26.174 325.4 25.5543 324.823 25.0355C324.276 24.4879 323.656 24.07 322.964 23.7818C322.302 23.4647 321.581 23.3062 320.803 23.3062C319.765 23.3062 318.973 23.5368 318.425 23.9979C317.877 24.4303 317.604 24.9779 317.604 25.6408C317.604 26.3325 317.863 26.9377 318.382 27.4565C318.929 27.9753 319.693 28.4509 320.673 28.8832C321.682 29.3155 322.892 29.7767 324.305 30.2666C325.371 30.6701 326.365 31.1457 327.288 31.6933C328.21 32.2121 329.017 32.8462 329.709 33.5955C330.429 34.3449 330.991 35.2095 331.395 36.1895C331.798 37.1694 332 38.2934 332 39.5616C332 41.0891 331.683 42.4582 331.049 43.6687C330.444 44.8504 329.608 45.8447 328.541 46.6517C327.504 47.4587 326.308 48.064 324.953 48.4675C323.627 48.8998 322.258 49.1159 320.846 49.1159C318.886 49.1159 317.056 48.7701 315.356 48.0784C313.684 47.3578 312.228 46.3923 310.989 45.1818C309.75 43.9713 308.784 42.6455 308.092 41.2044L313.194 37.5297Z" fill="url(#paint0_linear_862_122)"/>
<path d="M289.532 17.9022H296.968V48.1649H289.532V17.9022Z" fill="url(#paint1_linear_862_122)"/>
<path d="M260.207 17.9022H267.513V41.8962H279.661V48.1649H260.207V17.9022Z" fill="url(#paint2_linear_862_122)"/>
<path d="M232.515 48.1649V42.1556H247.776V48.1649H232.515ZM232.515 23.9115V17.9022H247.776V23.9115H232.515ZM232.515 35.1952V29.3156H246.911V35.1952H232.515ZM227.673 17.9022H234.676V48.1649H227.673V17.9022Z" fill="url(#paint3_linear_862_122)"/>
<path d="M197.497 37.5297C198.102 38.6249 198.779 39.576 199.529 40.383C200.307 41.19 201.143 41.8097 202.036 42.242C202.958 42.6743 203.924 42.8905 204.933 42.8905C205.999 42.8905 206.878 42.6311 207.57 42.1123C208.262 41.5647 208.607 40.8297 208.607 39.9074C208.607 39.1293 208.406 38.5096 208.002 38.0485C207.599 37.5585 206.95 37.0973 206.057 36.665C205.163 36.2327 203.981 35.7427 202.512 35.1951C201.791 34.9357 200.955 34.5755 200.004 34.1143C199.082 33.6532 198.203 33.0623 197.367 32.3418C196.531 31.5924 195.839 30.699 195.292 29.6614C194.744 28.595 194.47 27.3124 194.47 25.8137C194.47 24.0268 194.932 22.4848 195.854 21.1878C196.805 19.8909 198.073 18.9109 199.658 18.248C201.272 17.5563 203.059 17.2104 205.019 17.2104C207.037 17.2104 208.78 17.5419 210.25 18.2048C211.749 18.8677 212.988 19.7035 213.968 20.7123C214.948 21.721 215.697 22.7442 216.216 23.7818L210.639 26.8945C210.207 26.174 209.703 25.5543 209.126 25.0355C208.579 24.4879 207.959 24.07 207.267 23.7818C206.604 23.4647 205.884 23.3062 205.106 23.3062C204.068 23.3062 203.275 23.5368 202.728 23.9979C202.18 24.4303 201.906 24.9779 201.906 25.6408C201.906 26.3325 202.166 26.9377 202.685 27.4565C203.232 27.9753 203.996 28.4509 204.976 28.8832C205.985 29.3155 207.195 29.7767 208.607 30.2666C209.674 30.6701 210.668 31.1457 211.59 31.6933C212.513 32.2121 213.32 32.8462 214.011 33.5955C214.732 34.3449 215.294 35.2095 215.697 36.1895C216.101 37.1694 216.303 38.2934 216.303 39.5616C216.303 41.0891 215.986 42.4582 215.352 43.6687C214.746 44.8504 213.911 45.8447 212.844 46.6517C211.807 47.4587 210.61 48.064 209.256 48.4675C207.93 48.8998 206.561 49.1159 205.149 49.1159C203.189 49.1159 201.359 48.7701 199.658 48.0784C197.987 47.3578 196.531 46.3923 195.292 45.1818C194.052 43.9713 193.087 42.6455 192.395 41.2044L197.497 37.5297Z" fill="url(#paint4_linear_862_122)"/>
<path d="M160.647 42.3285L161.166 36.7515H176.168L176.643 42.3285H160.647ZM168.559 29.0129L164.322 38.7835L164.668 40.3831L160.907 48.1649H152.649L168.559 16L184.512 48.1649H176.211L172.58 40.6857L172.839 38.8267L168.559 29.0129Z" fill="url(#paint5_linear_862_122)"/>
<path d="M117.453 35.4978V28.9265H140.366V35.4978H117.453ZM135.74 17.9022H143.046V48.1649H135.74V17.9022ZM115.421 17.9022H122.727V48.1649H115.421V17.9022Z" fill="url(#paint6_linear_862_122)"/>
<path d="M82 17.9022H89.3063V48.1649H82V17.9022ZM86.5826 23.9115V17.9022H92.5055C95.0706 17.9022 97.2178 18.3057 98.9471 19.1127C100.705 19.8909 102.031 21.015 102.924 22.4849C103.818 23.9548 104.265 25.7273 104.265 27.8024C104.265 29.8199 103.818 31.5781 102.924 33.0768C102.031 34.5467 100.705 35.6851 98.9471 36.4921C97.2178 37.2703 95.0706 37.6594 92.5055 37.6594H86.5826V31.6501H92.5055C93.9754 31.6501 95.1282 31.3187 95.9641 30.6558C96.7999 29.9929 97.2178 29.0418 97.2178 27.8024C97.2178 26.5343 96.7999 25.5688 95.9641 24.9059C95.1282 24.243 93.9754 23.9115 92.5055 23.9115H86.5826Z" fill="url(#paint7_linear_862_122)"/>
<path d="M0 0.00012207V65.0001H7.96957V7.96969H65V0.00012207H0Z" fill="url(#paint8_linear_862_122)"/>
<path d="M57.0581 57.0837H32.5128V65.0001H64.9744V16.2905H57.0581V57.0837Z" fill="url(#paint9_linear_862_122)"/>
<path d="M44.811 48.7501H48.75V16.2905H16.2883V65.0001H24.2068V48.7501H44.811ZM24.2196 24.2196H40.7932V40.7954H24.2196V24.2196Z" fill="url(#paint10_linear_862_122)"/>
<defs>
<linearGradient id="paint0_linear_862_122" x1="331.44" y1="48.1648" x2="83.5294" y2="18.4426" gradientUnits="userSpaceOnUse">
<stop stop-color="#194161"/>
<stop offset="1" stop-color="#1C70AC"/>
</linearGradient>
<linearGradient id="paint1_linear_862_122" x1="331.44" y1="48.1649" x2="83.5294" y2="18.4426" gradientUnits="userSpaceOnUse">
<stop stop-color="#194161"/>
<stop offset="1" stop-color="#1C70AC"/>
</linearGradient>
<linearGradient id="paint2_linear_862_122" x1="331.44" y1="48.1649" x2="83.5294" y2="18.4426" gradientUnits="userSpaceOnUse">
<stop stop-color="#194161"/>
<stop offset="1" stop-color="#1C70AC"/>
</linearGradient>
<linearGradient id="paint3_linear_862_122" x1="331.44" y1="48.1649" x2="83.5294" y2="18.4426" gradientUnits="userSpaceOnUse">
<stop stop-color="#194161"/>
<stop offset="1" stop-color="#1C70AC"/>
</linearGradient>
<linearGradient id="paint4_linear_862_122" x1="331.44" y1="48.1648" x2="83.5294" y2="18.4426" gradientUnits="userSpaceOnUse">
<stop stop-color="#194161"/>
<stop offset="1" stop-color="#1C70AC"/>
</linearGradient>
<linearGradient id="paint5_linear_862_122" x1="331.44" y1="48.1649" x2="83.5294" y2="18.4426" gradientUnits="userSpaceOnUse">
<stop stop-color="#194161"/>
<stop offset="1" stop-color="#1C70AC"/>
</linearGradient>
<linearGradient id="paint6_linear_862_122" x1="331.44" y1="48.1649" x2="83.5294" y2="18.4426" gradientUnits="userSpaceOnUse">
<stop stop-color="#194161"/>
<stop offset="1" stop-color="#1C70AC"/>
</linearGradient>
<linearGradient id="paint7_linear_862_122" x1="331.44" y1="48.1649" x2="83.5294" y2="18.4426" gradientUnits="userSpaceOnUse">
<stop stop-color="#194161"/>
<stop offset="1" stop-color="#1C70AC"/>
</linearGradient>
<linearGradient id="paint8_linear_862_122" x1="32.5" y1="0.00012207" x2="32.5" y2="65.0001" gradientUnits="userSpaceOnUse">
<stop stop-color="#1C70AC"/>
<stop offset="1" stop-color="#7054A9"/>
</linearGradient>
<linearGradient id="paint9_linear_862_122" x1="48.7436" y1="16.2905" x2="48.7436" y2="65.0001" gradientUnits="userSpaceOnUse">
<stop stop-color="#2B8ECC"/>
<stop offset="1" stop-color="#8567C4"/>
</linearGradient>
<linearGradient id="paint10_linear_862_122" x1="32.5192" y1="16.2905" x2="32.5192" y2="65.0001" gradientUnits="userSpaceOnUse">
<stop stop-color="#2B8ECC"/>
<stop offset="1" stop-color="#8567C4"/>
</linearGradient>
</defs>
</svg>
