<svg width="333" height="66" viewBox="0 0 333 66" fill="none" xmlns="http://www.w3.org/2000/svg">
<path d="M0 0V65.1459H7.98745V7.98745H65.1459V0H0Z" fill="white"/>
<path d="M57.1861 57.2118H32.5857V65.1459H65.1202V16.327H57.1861V57.2118Z" fill="white"/>
<path d="M44.9115 48.8594H48.8594V16.327H16.3248V65.1459H24.2611V48.8594H44.9115ZM24.2739 24.2739H40.8847V40.8869H24.2739V24.2739Z" fill="white"/>
<path d="M313.569 37.5646C314.175 38.6616 314.853 39.6142 315.604 40.4225C316.383 41.2308 317.221 41.8515 318.116 42.2845C319.039 42.7176 320.006 42.9341 321.017 42.9341C322.085 42.9341 322.965 42.6742 323.658 42.1546C324.351 41.6061 324.698 40.87 324.698 39.9462C324.698 39.1668 324.495 38.5461 324.091 38.0842C323.687 37.5934 323.038 37.1315 322.143 36.6985C321.248 36.2655 320.064 35.7747 318.592 35.2262C317.87 34.9664 317.033 34.6056 316.08 34.1437C315.157 33.6818 314.276 33.09 313.439 32.3683C312.602 31.6177 311.909 30.7228 311.36 29.6835C310.812 28.6154 310.538 27.3307 310.538 25.8296C310.538 24.0398 311 22.4953 311.923 21.1962C312.876 19.8972 314.146 18.9156 315.734 18.2517C317.351 17.5588 319.14 17.2124 321.103 17.2124C323.124 17.2124 324.871 17.5444 326.343 18.2084C327.844 18.8723 329.086 19.7095 330.067 20.7199C331.049 21.7303 331.799 22.7551 332.319 23.7944L326.733 26.9122C326.3 26.1904 325.795 25.5698 325.217 25.0501C324.669 24.5016 324.048 24.0831 323.355 23.7944C322.691 23.4768 321.969 23.318 321.19 23.318C320.151 23.318 319.357 23.549 318.808 24.0109C318.26 24.4439 317.986 24.9924 317.986 25.6564C317.986 26.3492 318.245 26.9555 318.765 27.4751C319.314 27.9947 320.079 28.471 321.06 28.9041C322.071 29.3371 323.283 29.799 324.698 30.2897C325.766 30.6939 326.762 31.1702 327.685 31.7187C328.609 32.2384 329.417 32.8735 330.11 33.624C330.832 34.3746 331.395 35.2407 331.799 36.2222C332.203 37.2037 332.405 38.3296 332.405 39.5998C332.405 41.1298 332.088 42.501 331.453 43.7135C330.846 44.8971 330.009 45.8931 328.941 46.7014C327.902 47.5097 326.704 48.1159 325.347 48.5201C324.019 48.9531 322.648 49.1696 321.233 49.1696C319.27 49.1696 317.437 48.8232 315.734 48.1304C314.06 47.4087 312.602 46.4416 311.36 45.2291C310.119 44.0166 309.152 42.6887 308.459 41.2453L313.569 37.5646Z" fill="white"/>
<path d="M289.869 17.9053H297.317V48.217H289.869V17.9053Z" fill="white"/>
<path d="M260.496 17.9053H267.814V41.9381H279.982V48.217H260.496V17.9053Z" fill="white"/>
<path d="M232.759 48.217V42.198H248.045V48.217H232.759ZM232.759 23.9243V17.9053H248.045V23.9243H232.759ZM232.759 35.2263V29.3371H247.179V35.2263H232.759ZM227.909 17.9053H234.924V48.217H227.909V17.9053Z" fill="white"/>
<path d="M197.684 37.5646C198.29 38.6616 198.969 39.6142 199.719 40.4225C200.499 41.2308 201.336 41.8515 202.231 42.2845C203.154 42.7176 204.122 42.9341 205.132 42.9341C206.2 42.9341 207.081 42.6742 207.773 42.1546C208.466 41.6061 208.813 40.87 208.813 39.9462C208.813 39.1668 208.611 38.5461 208.206 38.0842C207.802 37.5934 207.153 37.1315 206.258 36.6985C205.363 36.2655 204.179 35.7747 202.707 35.2262C201.985 34.9664 201.148 34.6056 200.195 34.1437C199.272 33.6818 198.391 33.09 197.554 32.3683C196.717 31.6177 196.024 30.7228 195.475 29.6835C194.927 28.6154 194.653 27.3307 194.653 25.8296C194.653 24.0398 195.115 22.4953 196.038 21.1962C196.991 19.8972 198.261 18.9156 199.849 18.2517C201.466 17.5588 203.255 17.2124 205.219 17.2124C207.239 17.2124 208.986 17.5444 210.458 18.2084C211.959 18.8723 213.201 19.7095 214.182 20.7199C215.164 21.7303 215.914 22.7551 216.434 23.7944L210.848 26.9122C210.415 26.1904 209.91 25.5698 209.332 25.0501C208.784 24.5016 208.163 24.0831 207.47 23.7944C206.806 23.4768 206.085 23.318 205.305 23.318C204.266 23.318 203.472 23.549 202.924 24.0109C202.375 24.4439 202.101 24.9924 202.101 25.6564C202.101 26.3492 202.361 26.9555 202.88 27.4751C203.429 27.9947 204.194 28.471 205.175 28.9041C206.186 29.3371 207.398 29.799 208.813 30.2897C209.881 30.6939 210.877 31.1702 211.801 31.7187C212.724 32.2384 213.533 32.8735 214.225 33.624C214.947 34.3746 215.51 35.2407 215.914 36.2222C216.318 37.2037 216.52 38.3296 216.52 39.5998C216.52 41.1298 216.203 42.501 215.568 43.7135C214.962 44.8971 214.124 45.8931 213.056 46.7014C212.017 47.5097 210.819 48.1159 209.462 48.5201C208.134 48.9531 206.763 49.1696 205.348 49.1696C203.385 49.1696 201.552 48.8232 199.849 48.1304C198.175 47.4087 196.717 46.4416 195.475 45.2291C194.234 44.0166 193.267 42.6887 192.574 41.2453L197.684 37.5646Z" fill="white"/>
<path d="M160.775 42.3712L161.295 36.7852H176.321L176.797 42.3712H160.775ZM168.699 29.034L164.456 38.8204L164.802 40.4226L161.035 48.217H152.764L168.699 16L184.678 48.217H176.364L172.726 40.7257L172.986 38.8637L168.699 29.034Z" fill="white"/>
<path d="M117.51 35.5294V28.9474H140.46V35.5294H117.51ZM135.827 17.9053H143.145V48.217H135.827V17.9053ZM115.475 17.9053H122.793V48.217H115.475V17.9053Z" fill="white"/>
<path d="M82 17.9053H89.3181V48.217H82V17.9053ZM86.5901 23.9243V17.9053H92.5225C95.0918 17.9053 97.2425 18.3094 98.9746 19.1177C100.736 19.8972 102.063 21.0231 102.958 22.4953C103.853 23.9676 104.301 25.743 104.301 27.8215C104.301 29.8423 103.853 31.6033 102.958 33.1044C102.063 34.5767 100.736 35.717 98.9746 36.5253C97.2425 37.3048 95.0918 37.6945 92.5225 37.6945H86.5901V31.6755H92.5225C93.9948 31.6755 95.1495 31.3435 95.9867 30.6795C96.8239 30.0155 97.2425 29.0629 97.2425 27.8215C97.2425 26.5513 96.8239 25.5842 95.9867 24.9203C95.1495 24.2563 93.9948 23.9243 92.5225 23.9243H86.5901Z" fill="white"/>
</svg>
 